# xmcd
#
# Track frame offsets:
#	150
#	18329
#	33546
#	50744
#	68697
#	83345
#	97706
#	113095
#	126933
#	144392
#	162571
#	177788
#	194986
#	212939
#	227587
#	241948
#	257337
#	271175
#
# Disc length: 3850 seconds
#
# Revision: 3
# Processed by: cddbd v1.5.1PL2 Copyright (c) Steve Scherf et al.
# Submitted via: audiograbber 1.83.01
#
DISCID=f20f0812
DTITLE=Pop Hits Monthly - Nashville Edition - PHC0511
DYEAR=2005
DGENRE=Country
TTITLE0=Keith Urban - Better Life
TTITLE1=Alan Jackson - USA Today
TTITLE2=Gretchen Wilson - All Jacked Up
TTITLE3=Billy Currington - Must Be Doin' Somethin' Right
TTITLE4=Joe Nichols - Tequila Makes Her Clothes Fall Off
TTITLE5=George Canyon - Who Would You Be
TTITLE6=Martina McBride - Rose Garden
TTITLE7=Doc Walker - I Am Ready
TTITLE8=Randy Travis - Angels
TTITLE9=Keith Urban - Better Life (multiplex)
TTITLE10=Alan Jackson - USA Today (multiplex)
TTITLE11=Gretchen Wilson - All Jacked Up (multiplex)
TTITLE12=Billy Currington - Must Be Doin' Somethin' Right (multiplex)
TTITLE13=Joe Nichols - Tequila Makes Her Clothes Fall Off (multiplex)
TTITLE14=George Canyon - Who Would You Be (multiplex)
TTITLE15=Martina McBride - Rose Garden (multiplex)
TTITLE16=Doc Walker - I Am Ready (multiplex)
TTITLE17=Randy Travis - Angels (multiplex)
EXTD=
EXTT0=
EXTT1=
EXTT2=
EXTT3=
EXTT4=
EXTT5=
EXTT6=
EXTT7=
EXTT8=
EXTT9=
EXTT10=
EXTT11=
EXTT12=
EXTT13=
EXTT14=
EXTT15=
EXTT16=
EXTT17=
PLAYORDER=
